<?xml version="1.0" encoding="UTF-8"?><svg id="Warstwa_1" xmlns="http://www.w3.org/2000/svg" viewBox="0 0 458 441"><defs><style>.cls-1{letter-spacing:.04em;}.cls-2{letter-spacing:.04em;}.cls-3{letter-spacing:0em;}.cls-4{letter-spacing:-.02em;}.cls-5{font-family:Perandory-SemiCondensed, Perandory;font-size:57.58px;}.cls-5,.cls-6{fill:#fff;}.cls-6{fill-rule:evenodd;}.cls-7{letter-spacing:.02em;}.cls-8{letter-spacing:-.13em;}.cls-9{letter-spacing:-.08em;}.cls-10{letter-spacing:0em;}.cls-11{letter-spacing:.01em;}.cls-12{letter-spacing:.01em;}.cls-13{letter-spacing:.01em;}.cls-14{letter-spacing:.02em;}</style></defs><rect width="458" height="441"/><text class="cls-5" transform="translate(140.58 226.29)"><tspan class="cls-14" x="0" y="0">I </tspan><tspan class="cls-12" x="26.49" y="0">K</tspan><tspan class="cls-14" x="52.29" y="0">ali</tspan><tspan class="cls-3" x="116.03" y="0">s</tspan><tspan class="cls-11" x="139.29" y="0">k</tspan><tspan class="cls-7" x="165.27" y="0">i</tspan><tspan class="cls-7" x="-4.46" y="69.1">F</tspan><tspan class="cls-1" x="16.5" y="69.1">e</tspan><tspan class="cls-12" x="40.28" y="69.1">s</tspan><tspan class="cls-7" x="64.12" y="69.1">t</tspan><tspan class="cls-10" x="85.37" y="69.1">i</tspan><tspan class="cls-8" x="97" y="69.1">w</tspan><tspan class="cls-14" x="131.78" y="69.1">al</tspan><tspan class="cls-4" x="-51.59" y="138.2">P</tspan><tspan class="cls-7" x="-29.71" y="138.2">iani</tspan><tspan class="cls-13" x="53.32" y="138.2">s</tspan><tspan class="cls-14" x="77.16" y="138.2">t</tspan><tspan class="cls-9" x="98.41" y="138.2">y</tspan><tspan class="cls-2" x="122.42" y="138.2">c</tspan><tspan class="cls-7" x="150.01" y="138.2">zny</tspan></text><path class="cls-6" d="M114.35,134.6c-3.9-.65-2.88-6.53,1.04-5.88,14.24,1.94,461.98,84.56-1.04,5.88ZM314.15,55.58c2,.74,33.76,13.07,31.88,14.82-5.17,4.83-40.98,6.5-43.41,25.83,34.66,24.85-2.07,21.19-21.16,31.28-9.88,5.21-10.42,7.71-15.92,14.63,10.15-16.22,15.44-17.86,44.11-24.95,12.41-9.49-8.89-17.82-10.12-20.8-5.09-11.87,26.69-22.23,41.25-26.85-17.28-7.32-9.35-3.95-27.55-11.66-124.45,45.57-62.2,22.8-187.99,68.76-3.1,1.13-7.37-1.68-4.22-2.84.04,0,188.83-69.8,193.14-68.21Z"/></svg>